# xmcd CD database file
#
# Track frame offsets:
#	150
#	5955
#	39990
#	65302
#	112344
#	140627
#	176504
#
# Disc length: 4328 seconds
#
# Revision: 0
# Processed by: cddbd v1.5.1PL0 Copyright (c) Steve Scherf et al.
# Submitted via: CDex 1.51
#
DISCID=6310e607
DTITLE=Archie SHEPP - Live in San Francisco
DYEAR=1966
DGENRE=Jazz
TTITLE0=Keep Your Heart Right
TTITLE1=Lady Sings The Blues
TTITLE2=Sylvia
TTITLE3=Wherever June Bugs Go
TTITLE4=In A Sentimental Mood
TTITLE5=Things Ain't What They Used To Be
TTITLE6=Three For A Quarter, Once For A Dime
EXTD=YEAR: 1966
EXTT0=
EXTT1=
EXTT2=
EXTT3=
EXTT4=
EXTT5=
EXTT6=
PLAYORDER=
